<svg xmlns="http://www.w3.org/2000/svg" viewBox="0 0 800 520" role="img" aria-labelledby="title desc"><title id="title">Силуэт рыжей лошади</title><desc id="desc">Декоративная иллюстрация для демонстрационного вопроса</desc><rect width="800" height="520" rx="36" fill="#f4e8db"/><circle cx="650" cy="108" r="58" fill="#e8d6a7"/><path d="M0 393c120-49 210-31 318 2 127 39 281 34 482-35v160H0z" fill="#bedccf"/><path d="M212 358c36-29 49-77 72-113 28-43 71-59 122-59 49 0 83 19 114 52l51-85 31 15-24 102-39 31-20 92h-31l8-105-54 17-39 88h-31l22-101-86 2-64 99h-34l51-108c-31 1-55-8-71-25-23-24-18-57 4-75 0 42 25 55 72 45l-30 128z" fill="#a95c3f"/><path d="M552 174c22-51 41-68 58-81l-10 71zM286 235c-35-6-62-25-79-52 2 39 19 68 53 87z" fill="#77412f"/><circle cx="573" cy="201" r="5" fill="#302d3b"/></svg>
